<svg width="200" height="200" viewBox="0 0 200 200" fill="none" xmlns="http://www.w3.org/2000/svg">
<g clip-path="url(#clip0_783_46)">
<circle cx="100" cy="100" r="92.5" fill="white" stroke="#3A5AFF" stroke-width="15"/>
<path d="M94.5284 146H61.5284V52.9091H94.8011C104.165 52.9091 112.225 54.7727 118.983 58.5C125.741 62.197 130.938 67.5151 134.574 74.4545C138.241 81.3939 140.074 89.697 140.074 99.3636C140.074 109.061 138.241 117.394 134.574 124.364C130.938 131.333 125.71 136.682 118.892 140.409C112.104 144.136 103.983 146 94.5284 146ZM81.2102 129.136H93.7102C99.5284 129.136 104.422 128.106 108.392 126.045C112.392 123.955 115.392 120.727 117.392 116.364C119.422 111.97 120.438 106.303 120.438 99.3636C120.438 92.4848 119.422 86.8636 117.392 82.5C115.392 78.1364 112.407 74.9242 108.438 72.8636C104.468 70.803 99.5739 69.7727 93.7557 69.7727H81.2102V129.136Z" fill="black"/>
</g>
<defs>
<clipPath id="clip0_783_46">
<rect width="200" height="200" fill="white"/>
</clipPath>
</defs>
</svg>
